<svg width="392" height="421" viewBox="0 0 392 421" fill="none" xmlns="http://www.w3.org/2000/svg">
<g opacity="0.02" clip-path="url(#clip0_541_26847)" filter="url(#filter0_d_541_26847)">
<path d="M357.231 157.651C357.231 158.144 357.231 159.871 359.2 159.378C362.646 157.404 365.846 155.183 368.554 152.963C402.769 125.331 381.6 83.1428 381.6 83.1428C374.215 69.5735 363.631 61.6786 354.031 56.9911C342.215 51.3166 332.123 50.5765 331.877 50.5765C331.877 48.6028 331.384 46.6291 330.892 45.1488C330.646 44.1619 330.154 43.4218 329.661 42.4349L329.415 42.1882L329.169 41.9415L328.923 41.4481C328.677 40.9546 328.431 40.7079 328.184 40.2145C326.461 37.2539 324.246 34.5401 322.031 32.0729C321.292 31.3328 320.554 30.5926 319.815 29.8525C319.077 29.3591 318.584 28.8656 318.338 28.3722C317.108 27.3853 315.877 26.1518 314.646 25.1649C309.477 20.9708 304.061 17.7635 298.4 14.8029C295.692 13.3226 292.738 12.089 289.784 10.8555C286.831 9.6219 283.877 8.63504 280.677 7.64818C278.215 6.90804 275.754 6.16789 273.292 5.67447C269.846 4.68761 266.154 3.94746 262.708 3.45404C255.569 2.22046 248.677 1.48032 241.784 0.986891C163.015 -5.6744 92.6152 30.3459 92.6152 30.3459C92.6152 30.3459 111.815 32.0729 122.154 33.0598C115.508 35.7736 108.369 38.7342 100.738 42.6816C80.7998 52.7969 55.6921 69.3268 34.2767 94.4917C26.8921 103.62 12.3691 124.097 6.95367 150.743L18.5229 143.094C18.7691 143.094 24.9229 138.9 33.046 134.213C27.6306 142.601 21.9691 152.963 17.046 166.039C6.70751 193.671 -1.90787 236.846 9.41521 295.071C10.1537 297.291 17.5383 323.936 29.5998 345.4L31.8152 330.844C31.8152 330.597 34.2767 315.548 37.4767 298.031C38.7075 301.485 39.9383 304.692 41.4152 307.653C47.8152 321.222 55.1998 333.065 62.8306 343.427C62.8306 343.427 62.8306 343.427 62.8306 343.673C79.5691 366.124 97.7844 381.421 111.815 391.042C116.492 396.717 127.569 402.145 137.661 406.339C147.754 410.533 156.615 413 156.615 413C167.938 352.062 171.631 323.689 195.508 287.916C212.492 265.958 242.031 262.998 242.031 262.998C341.969 257.817 365.108 211.434 369.538 198.112H312.677C307.015 197.865 300.123 197.372 293.969 195.891C281.169 192.931 271.569 176.894 301.846 162.832C324 152.716 330.892 149.262 331.631 148.275C340.492 143.588 348.123 138.16 348.123 138.16C360.184 137.42 358.215 150.002 358.215 150.002C358.215 152.716 357.723 155.43 357.231 157.651ZM227.015 119.657C224.8 120.397 222.831 121.384 220.369 122.37H220.123C219.384 122.617 218.892 122.864 218.4 123.111C217.908 123.357 217.661 123.357 217.169 123.604C216.677 123.851 216.184 124.097 215.692 124.344C215.446 124.344 215.2 124.591 214.954 124.591C214.708 124.591 214.708 124.838 214.461 124.838C212.492 125.824 210.523 126.565 208.554 127.551C207.323 128.045 206.092 128.785 204.861 129.278C204.615 129.525 204.369 129.525 204.123 129.772C203.877 130.019 203.631 130.019 203.138 130.265C202.892 130.265 202.892 130.512 202.646 130.512C201.908 131.005 201.169 131.252 200.431 131.746C199.938 131.992 199.692 132.239 199.2 132.486C198.461 132.979 197.969 133.226 197.231 133.719C196.738 133.966 196.246 134.213 196 134.459C195.508 134.706 195.015 135.2 194.277 135.446C193.784 135.693 193.292 135.94 193.046 136.433C192.554 136.68 192.061 137.173 191.569 137.42C191.323 137.667 191.077 137.667 191.077 137.913C190.831 138.16 190.584 138.16 190.338 138.407C190.092 138.654 189.6 138.9 189.354 139.147C189.108 139.394 189.108 139.394 188.861 139.64C188.615 139.887 188.369 140.134 188.123 140.381C187.631 140.627 187.138 141.121 186.892 141.367C186.646 141.614 186.154 141.861 185.908 142.108C185.415 142.601 184.923 142.848 184.431 143.341C184.184 143.588 183.938 143.835 183.692 144.081C183.2 144.575 182.708 145.068 182.215 145.315C181.723 145.315 181.477 145.562 181.231 145.562C180.738 146.055 180.246 146.302 180 146.795L179.754 147.042C179.508 147.289 179.508 147.289 179.261 147.535C178.769 148.029 178.769 148.029 178.523 148.275C178.277 148.522 178.277 148.522 178.031 148.769C177.784 149.016 177.784 149.016 177.538 149.262C177.292 149.509 177.046 149.756 177.046 149.756L176.8 150.002C176.554 150.249 176.308 150.743 175.815 150.989C175.569 151.236 175.323 151.483 175.077 151.729C174.584 152.223 174.092 152.963 173.6 153.456C173.6 153.456 173.6 153.703 173.354 153.703C172.615 154.443 171.877 155.43 171.384 156.17L171.138 156.417C170.4 157.157 169.908 157.897 169.415 158.637C169.415 158.637 169.415 158.884 169.169 158.884C168.923 159.131 168.677 159.624 168.431 159.871C168.431 160.118 168.184 160.118 168.184 160.364C167.938 160.858 167.692 161.105 167.446 161.351C166.461 162.832 165.723 164.065 165.231 165.299C164.984 165.545 164.984 165.792 164.984 166.039C164.984 166.286 164.738 166.286 164.738 166.532C164.738 166.779 164.492 167.026 164.492 167.272C164.492 167.272 164.492 167.272 164.492 167.519C164.492 167.766 164.246 168.013 164.246 168.013V168.259C170.4 164.065 176.8 160.611 182.954 157.897C185.169 156.91 187.384 155.924 189.846 154.937C191.323 154.443 192.8 153.703 194.523 153.21C203.631 150.002 213.969 147.782 224.554 148.029C224.554 148.029 204.861 161.598 186.892 186.516C183.2 191.697 180.246 196.878 177.538 201.319C171.877 211.188 168.677 218.342 168.677 218.342C168.677 218.342 175.323 213.161 184.184 207.487C195.261 200.332 209.784 191.944 218.892 191.204L218.4 191.697L218.154 191.944C218.154 192.191 218.154 192.191 217.908 192.437C214.954 195.398 206.831 204.28 196.738 216.369C196.492 216.862 196 217.109 195.754 217.602C194.277 219.576 192.554 221.55 191.077 223.77C190.831 224.263 190.338 224.757 189.846 225.25C189.354 225.99 188.861 226.731 188.369 227.471C132.984 304.939 131.508 387.342 131.508 387.342C131.261 387.342 131.015 387.095 130.769 386.848C128.8 385.861 126.584 384.381 124.123 382.654C123.877 382.407 123.384 382.161 123.138 381.914C122.4 381.421 121.908 380.927 121.169 380.68C116.738 377.72 111.815 374.266 106.892 369.825C103.692 367.358 100.492 364.397 97.2921 361.437C97.046 361.19 96.7998 360.943 96.7998 360.943C96.3075 360.697 96.0614 360.203 95.5691 359.956C94.8306 359.216 94.3383 358.723 93.5998 357.983C93.3537 357.736 93.3537 357.736 93.1075 357.489C79.8152 343.427 76.8614 323.196 76.3691 315.301C76.3691 314.808 76.3691 314.314 76.3691 314.068C76.3691 313.574 76.3691 312.834 76.3691 312.341V312.094C76.1229 307.653 76.1229 302.965 76.1229 298.278C76.1229 295.564 76.1229 293.097 76.1229 290.383C76.1229 287.669 76.1229 285.202 76.3691 282.735C76.3691 282.735 76.3691 282.735 76.3691 282.488C76.3691 282.488 76.3691 282.488 76.3691 282.241C76.3691 281.008 76.3691 279.774 76.6152 278.541C76.6152 277.801 76.6152 276.814 76.6152 276.074C76.6152 274.84 76.6152 273.606 76.8614 272.373C76.8614 271.633 76.8614 270.646 77.1075 269.906C77.1075 269.165 77.1075 268.425 77.3537 267.685C77.3537 266.945 77.3537 266.205 77.5998 265.465C77.5998 264.971 77.5998 264.725 77.5998 264.231C77.5998 263.244 77.846 262.011 77.846 261.024C78.0921 256.583 78.5844 252.882 78.8306 249.675V249.428C78.8306 249.182 78.8306 248.935 78.8306 248.688C79.0767 247.208 79.0768 245.728 79.3229 244.494C79.3229 244.247 79.3229 243.754 79.3229 243.507C79.3229 243.26 79.3229 243.26 79.3229 243.014V242.767C79.3229 242.274 79.3229 242.027 79.3229 241.78C79.3229 241.04 79.3229 240.793 79.3229 240.547C79.0768 241.04 78.8306 241.533 78.8306 242.027C76.8614 246.961 73.4152 257.57 70.9537 264.971C69.4767 269.906 68.246 273.36 68.246 273.36C67.7537 275.58 67.2614 277.801 66.7691 280.021C65.7844 284.462 65.046 288.903 64.3075 293.59C63.5691 298.031 63.0767 302.472 62.8306 307.16C62.5844 310.614 62.3383 314.068 62.3383 317.768C59.3844 312.834 56.6767 307.653 53.9691 302.225C49.5383 293.344 46.0921 279.774 44.1229 272.866C43.3844 270.152 43.1383 268.425 42.8921 268.179L36.246 238.573L35.9998 237.586L34.2767 245.728L29.5998 267.932C28.1229 274.84 26.646 282.735 25.1691 290.383C24.6767 292.85 24.1844 295.317 23.9383 297.784C19.7537 278.787 18.0306 261.517 17.7844 245.974C17.2921 220.316 20.9844 199.345 25.9075 182.569V182.322C26.1537 182.075 26.1537 182.075 26.1537 181.829C27.1383 178.375 28.3691 174.921 29.5998 171.713C31.0767 167.766 32.5537 164.065 34.2767 160.611C46.3383 134.459 60.6152 121.384 60.8614 121.384L66.2767 116.696L83.2614 101.646L54.4614 109.788C53.7229 110.035 52.9844 110.281 51.9998 110.528C51.0152 110.775 50.0306 111.268 49.046 111.515C43.8767 113.489 38.4614 115.956 33.2921 118.67C35.2614 115.709 37.4767 112.749 39.446 110.035C85.9691 48.6028 169.908 24.9182 169.908 24.9182C169.908 24.9182 161.046 23.9313 135.692 24.6715C135.446 24.4248 135.446 24.4248 135.446 24.4248C135.446 24.4248 176.308 8.88175 225.046 9.6219C226.277 9.6219 227.261 9.6219 228.492 9.6219C229.723 9.6219 230.954 9.6219 231.938 9.6219C232.184 9.6219 232.677 9.6219 232.923 9.6219C234.154 9.6219 235.384 9.6219 236.861 9.86861C242.277 10.1153 247.692 10.8555 253.354 11.5956C254.092 11.5956 254.831 11.8423 255.569 12.089C256.308 12.089 257.046 12.3358 257.784 12.3358C259.015 12.5825 260.246 12.8292 261.477 13.0759C262.215 13.0759 262.708 13.3226 263.446 13.5693C264.431 13.816 265.169 13.816 265.908 14.0628C266.154 14.0628 266.646 14.0628 266.892 14.3095H267.138C267.384 14.3095 267.631 14.3095 267.877 14.5562C294.215 18.7503 314.154 37.0072 318.831 46.1356C320.308 52.7969 313.415 53.7838 300.615 51.3166C299.877 51.0699 299.138 51.0699 298.646 50.8232C294.708 49.8364 290.031 48.8495 285.108 47.3692C284.123 47.1225 283.138 46.8758 282.154 46.3823C281.908 46.3823 281.661 46.3824 281.661 46.1356C280.923 45.8889 279.938 45.6422 279.2 45.3955C279.2 44.9021 279.2 44.4086 278.954 43.9152C278.708 42.4349 278.461 41.6948 278.215 40.9546L277.477 39.4743L276.246 38.2408C274.277 36.0203 269.846 33.0598 255.077 30.8393C249.661 30.0992 245.231 29.6058 241.784 29.8525C237.354 29.8525 234.4 30.8393 232.184 32.3196L230.954 33.3065L230.215 34.2933C226.031 33.7999 221.846 33.5532 218.154 33.5532C211.015 33.0598 203.631 32.8131 196 33.5532C195.508 33.5532 194.769 33.5532 194.277 33.7999C193.784 33.7999 193.046 33.7999 192.554 34.0466C192.061 34.0466 191.815 34.0466 191.323 34.2933C176.308 36.5138 160.061 41.2013 143.569 50.3298H142.584C142.338 50.5765 142.092 50.5765 142.092 50.5765C142.584 50.5765 143.077 50.3298 143.569 50.3298C143.569 50.3298 145.538 49.8363 148.984 49.0962C159.569 46.6291 187.631 41.4481 209.538 43.9152C211.261 44.1619 213.231 44.4086 214.954 44.6553C214.461 44.6553 213.969 44.9021 213.723 44.9021L209.538 46.3823L208.308 50.0831C208.061 50.5765 207.323 52.3035 206.584 55.2641C205.846 58.2246 204.861 62.4188 203.877 68.0932C203.384 71.3005 203.138 74.0144 202.892 76.4815C202.4 82.4027 202.892 85.6099 202.892 86.3501L203.631 90.7909L207.323 93.2581C208.061 93.7515 208.8 94.2449 210.031 94.4917C210.277 94.7384 210.769 94.7384 211.261 94.9851C213.231 95.7252 215.692 96.4654 218.892 97.2055C218.892 102.14 219.138 105.594 219.877 107.814L221.354 112.008L225.292 113.735C226.031 113.982 228.984 115.216 234.892 116.449C232.431 117.189 229.969 118.423 227.015 119.657ZM229.231 104.36C229.231 104.36 228.246 101.4 229.231 89.3107C215.692 86.5968 212.984 84.8698 212.984 84.8698C212.984 84.8698 212.246 80.1822 213.723 69.3268C215.2 58.4714 217.415 53.7838 217.415 53.7838C217.415 53.7838 220.615 52.7969 234.4 53.7838C236.861 42.4349 238.584 39.9678 238.584 39.9678C238.584 39.9678 240.8 38.2408 254.092 40.2145C267.384 42.1882 269.354 44.4086 269.354 44.4086C269.354 44.4086 270.338 46.6291 269.108 58.9648C281.661 61.6786 284.615 63.4056 284.615 63.4056C284.615 63.4056 286.338 65.6261 284.369 78.9487C282.4 92.2712 280.184 94.2449 280.184 94.2449C280.184 94.2449 277.723 95.2318 264.184 93.9982C261.723 106.087 260.246 108.554 260.246 108.554C260.246 108.554 255.569 109.295 244.738 107.568C233.908 106.334 229.231 104.36 229.231 104.36ZM357.969 119.163C357.231 118.67 356.738 118.423 356.492 118.423C355.754 118.176 354.769 117.93 353.784 117.683C351.815 117.189 349.6 116.943 347.384 116.696C346.4 116.696 345.661 116.449 344.677 116.449C335.077 116.203 324.984 117.93 315.631 120.643C299.384 125.084 286.584 131.499 286.584 131.499C287.323 131.499 287.815 131.252 288.554 131.252C299.138 129.525 308.246 128.292 315.631 127.305C324.738 126.318 331.631 125.824 337.046 125.578C337.292 125.578 337.538 125.578 338.031 125.578C338.769 125.578 339.508 125.578 340.246 125.578C340.984 125.578 341.477 125.578 342.215 125.578C342.707 125.578 343.446 125.578 343.938 125.824C346.646 126.071 347.877 126.565 348.369 127.058C348.615 127.305 348.615 127.551 348.615 127.798C348.123 129.278 345.415 131.005 343.692 131.992C342.954 132.486 342.215 132.732 341.231 133.226C340.492 133.719 339.508 133.966 338.523 134.459C319.815 143.341 302.338 147.042 295.2 148.275C293.723 148.522 292.738 148.769 292.246 148.769C279.938 150.002 270.092 147.782 262.708 144.575H262.461C261.723 144.328 261.231 143.835 260.492 143.588C260 143.341 259.508 143.094 259.015 142.848C249.169 137.667 244.738 131.252 244.738 131.252H244.984C245.723 131.252 246.215 131.005 246.954 130.759C247.2 130.759 247.692 130.512 248.184 130.512C248.677 130.265 249.169 130.265 249.908 130.019C250.154 130.019 250.646 129.772 250.892 129.772C251.877 129.525 252.861 129.278 253.846 129.032C254.092 129.032 254.338 128.785 254.831 128.785C255.569 128.538 256.308 128.292 257.046 128.045C257.292 128.045 257.538 127.798 257.784 127.798C258.031 127.798 258.277 127.551 258.277 127.551C259.261 127.058 260.492 126.811 261.477 126.318C261.477 126.318 261.723 126.318 261.723 126.071C262.708 125.578 263.692 125.084 264.431 124.838C265.415 124.344 266.154 123.851 267.138 123.357C267.384 123.111 267.631 123.111 267.877 122.864C268.369 122.617 269.108 122.124 269.6 121.877C269.846 121.63 270.338 121.384 270.584 121.137C271.077 120.89 271.815 120.397 272.308 119.903C272.554 119.657 273.046 119.41 273.292 119.163C274.031 118.67 274.769 118.176 275.261 117.683C275.508 117.436 275.754 117.436 275.754 117.189C276.738 116.449 277.477 115.709 278.215 114.969C278.461 114.722 278.708 114.476 278.954 114.476C279.692 113.982 280.184 113.242 280.923 112.749C281.169 112.502 281.415 112.255 281.661 112.008C281.908 111.762 282.154 111.515 282.646 111.022C282.892 110.775 283.138 110.528 283.384 110.281C283.877 109.788 284.123 109.295 284.615 109.048C284.861 108.801 285.108 108.554 285.354 108.308C285.846 107.814 286.092 107.321 286.584 106.827C297.415 92.5179 304.061 75.4947 317.6 66.1195C317.354 66.1195 316.861 66.1195 316.615 66.1195L320.061 64.3925C320.8 64.1458 321.292 63.6524 322.031 63.4056C323.754 62.4188 325.477 61.6786 327.446 60.9385C327.446 60.9385 374.215 67.1064 377.908 104.607C378.154 105.841 378.154 107.074 378.154 108.554C378.4 113.982 377.661 119.657 376.431 124.838C376.431 125.084 376.184 125.331 376.184 125.578C375.938 126.318 375.692 127.305 375.446 128.045C374.461 131.005 373.231 133.719 372 135.94C370.769 138.16 369.538 140.134 368.554 141.614C367.323 142.354 367.569 141.121 367.569 141.121C367.815 139.887 368.061 138.9 368.308 137.913C368.554 135.693 368.554 133.719 368.308 131.746C368.061 131.005 368.061 130.265 367.815 129.525C366.831 126.565 365.108 124.344 363.384 122.617C361.415 121.137 359.2 119.903 357.969 119.163Z" fill="white"/>
</g>
<defs>
<filter id="filter0_d_541_26847" x="0" y="0" width="392" height="421" filterUnits="userSpaceOnUse" color-interpolation-filters="sRGB">
<feFlood flood-opacity="0" result="BackgroundImageFix"/>
<feColorMatrix in="SourceAlpha" type="matrix" values="0 0 0 0 0 0 0 0 0 0 0 0 0 0 0 0 0 0 127 0" result="hardAlpha"/>
<feOffset dy="4"/>
<feGaussianBlur stdDeviation="2"/>
<feComposite in2="hardAlpha" operator="out"/>
<feColorMatrix type="matrix" values="0 0 0 0 0 0 0 0 0 0 0 0 0 0 0 0 0 0 0.25 0"/>
<feBlend mode="normal" in2="BackgroundImageFix" result="effect1_dropShadow_541_26847"/>
<feBlend mode="normal" in="SourceGraphic" in2="effect1_dropShadow_541_26847" result="shape"/>
</filter>
<clipPath id="clip0_541_26847">
<rect width="384" height="413" fill="white" transform="translate(4)"/>
</clipPath>
</defs>
</svg>
