<svg width="24" height="24" viewBox="0 0 24 24" fill="none" xmlns="http://www.w3.org/2000/svg">
<path fill-rule="evenodd" clip-rule="evenodd" d="M11.9618 0.363647C14.1252 0.388335 16.0797 0.920043 17.8252 1.95877C19.5498 2.97676 20.9845 4.42019 21.9919 6.15102C23.0243 7.907 23.5528 9.87329 23.5774 12.0499C23.5161 15.028 22.5768 17.5716 20.7595 19.6807C18.9421 21.7898 16.6145 23.0946 14.2051 23.5948V15.2451H16.483L16.9982 11.9639H13.5488V9.81472C13.5297 9.36919 13.6706 8.93151 13.946 8.58082C14.2219 8.22918 14.7077 8.04435 15.4033 8.02635H17.4863V5.15205C17.4564 5.14244 17.1728 5.10441 16.6355 5.03798C16.0262 4.96668 15.4134 4.9286 14.7999 4.92391C13.4114 4.93031 12.3132 5.32199 11.5055 6.09894C10.6977 6.87567 10.2851 7.99943 10.2676 9.47023V11.9639H7.64257V15.2451H10.2676V23.5948C7.30906 23.0946 4.98148 21.7898 3.16414 19.6807C1.34679 17.5716 0.407513 15.028 0.346191 12.0499C0.370726 9.87319 0.899219 7.9069 1.93167 6.15102C2.93915 4.42019 4.37381 2.97676 6.09847 1.95877C7.84389 0.920243 9.79833 0.388535 11.9618 0.363647V0.363647Z" fill="#172532"/>
</svg>
